# xmcd CD database file
#
# Track frame offsets:
#	150
#	3566
#	41404
#	71463
#	94149
#	123180
#	163402
#	183487
#	213659
#	242001
#	259526
#	292964
#	319817
#
# Disc length: 4696 seconds
#
# Revision: 8
# Processed by: cddbd v1.5.2PL0 Copyright (c) Steve Scherf et al.
# Submitted via: CDex 1.51
#
DISCID=b712560d
DTITLE=THE PRODIGY - MUSIC FOR THE JILTED GENERATION
DYEAR=1994
DGENRE=Techno
TTITLE0=Intro
TTITLE1=Break and Enter
TTITLE2=Their Law (Featuring Pop Will Eat Itself)
TTITLE3=Full Throttle
TTITLE4=Voodoo People
TTITLE5=Speedway (Theme From Fastlane)
TTITLE6=The Heat (The Energy)
TTITLE7=Poison
TTITLE8=No Good (Start The Dance)
TTITLE9=One Love (Edit)
TTITLE10=3 Kilos
TTITLE11=Skylined
TTITLE12=Claustrophobic Sting
EXTD=\t\tThe Prodigy:\n\t  Music for the Jilted Generation\n\n\tMUTE 9003-2  7 24956-9003-2\n\nAll tracks written by L.Howlett at Earthbound Studios except\n           track 3 written by L.Howlett and Pop Will Eat Itself\n\tat Earthbound Studios and\n   
EXTD=track 8 written by L.Howlett and K.Palmer at \n\tat Earthbound Studios\n\nTracks 1,2,3,6,8,11,12 and 13 produced and mixed by\n\tL.Howlett at E.S.\nTracks 4,5,7,9 and 10 produced and mixed by\n\tNeil McLellan and L.Howlett at the Strongroom\n\n
EXTD=Track 2 sample taken from 'Casanova' by Baby D courtesy\n\tof Production House Records Ltd\nTrack 9 'No Good for Me' by Kelly Charles, sampled under\n\tlicense from Polygram Special Markets, a division\n\tof Polygram Group Distribution Inc.\n    \nL
EXTD=ive Flute by Phil Bent\nLive Guitar (Voodoo People) by Lance Riddler\n\nAll tracks published by EMI Virgin Music, Inc. (ASCAP]\n\texcept track 9 published by EMI Virgin Music,\n\tInc. (ASCAP) - Next Plateau Music, Inc. (ASCAP]\n\nFront photograph: S
EXTD=tuart Haygarth\nInside sleeve painting: Les Edwards\nRear sleeve photography: Jamie Fry\n\nCopyright 1995 Mute Corporation\n[first published in the U.K. in 1994]\n\nMUTE 9003-2  7 24956-9003-2 YEAR: 1994
EXTT0=
EXTT1=
EXTT2=featuring Pop Will Eat Itself
EXTT3=
EXTT4=
EXTT5=
EXTT6=
EXTT7=
EXTT8=
EXTT9=
EXTT10=
EXTT11=
EXTT12=
PLAYORDER=
